<svg xmlns="http://www.w3.org/2000/svg" width="512" height="512" viewBox="0 0 1024 1024">
    <g>
        <!-- Full-bleed background for maskable icon -->
        <rect width="1024" height="1024" fill="#18BCF2"/>
        <g>
            <path fill="#FA9012" d="M883.2,413.1l-70.4-55.6l0,0V231.1c0-8.6-3.4-11-9.5-11h-64.4c-7,0-11.3,1.4-11.3,11v59.1l0,0C634.5,216.7,533.6,137,529.8,134c-7.6-6-12.3-7.6-17.8-7.6c-5.4,0-10.1,1.6-17.8,7.6c-7.6,6-343.2,271.1-353.4,279.1c-12.4,9.8-8.9,23.9,4.9,23.9h65.5v355.6c0,23,9.2,32.2,31.1,32.2h539.4c21.9,0,31.1-9.2,31.1-32.2V436.9h65.5C892.1,436.9,895.6,422.9,883.2,413.1z M757.6,742.6c0,15.9-8.2,26.9-24.8,26.9H291.1c-16.6,0-24.8-11-24.8-26.9V410.3c0-19.3,8.4-31.6,18.1-39.2l212.4-167.7c5.6-4.4,10.4-6.3,15.1-6.3s9.5,1.9,15.1,6.4l212.4,167.7c9.6,7.6,18.1,19.9,18.1,39.2V742.6z"/>
            <path fill="#FFAB1F" d="M739.6,371.1L527.1,203.3c-5.6-4.4-10.6-6.3-15.1-6.3c-4.6,0-9.5,1.9-15.1,6.4L284.4,371.1c-9.6,7.6-18.1,19.9-18.1,39.2v332.3c0,15.9,8.2,26.9,24.8,26.9h441.7c16.6,0,24.8-11,24.8-26.9V410.3C757.6,391,749.2,378.7,739.6,371.1z M702.6,692.7c0,14.8-8.4,21.7-20.7,21.7H342.2c-12.3,0-20.7-6.9-20.7-21.7V433.2c0-14.4,3.4-22.6,13.6-30.7c5.8-4.6,160.3-126.6,164.4-129.8c4.1-3.3,8.5-4.9,12.5-4.9c4,0,8.4,1.7,12.5,4.9c4.1,3.3,158.6,125.3,164.4,129.8c10.2,8.1,13.6,16.4,13.6,30.7L702.6,692.7z"/>
            <path fill="#FFBE41" d="M688.9,402.5c-5.8-4.5-160.3-126.6-164.4-129.8c-4.1-3.3-8.5-4.9-12.5-4.9c-4,0-8.4,1.7-12.5,4.9c-4.1,3.3-158.6,125.3-164.4,129.8c-10.2,8.1-13.6,16.4-13.6,30.7v259.5c0,14.8,8.4,21.7,20.7,21.7h339.7c12.3,0,20.7-6.9,20.7-21.7V433.2C702.5,418.9,699.1,410.6,688.9,402.5z M647.4,642.8c0,11.9-6.6,16.5-15.6,16.5H392.2c-9,0-15.6-4.6-15.6-16.5V456.2c0-8.3,0-14.9,9.1-22.2c6-4.8,113.2-89.4,116.4-91.9s6.4-3.8,9.9-3.8c3.6,0.1,7.1,1.5,9.9,3.8c3.2,2.5,110.4,87.1,116.4,91.9c9.1,7.3,9.1,13.9,9.1,22.2L647.4,642.8z"/>
            <path fill="#FFD260" d="M638.3,434c-6-4.8-113.2-89.4-116.4-91.9c-2.8-2.4-6.3-3.7-9.9-3.8c-3.5,0-6.7,1.3-9.9,3.8S391.6,429.2,385.7,434c-9.1,7.3-9.1,13.9-9.1,22.2v186.6c0,11.9,6.6,16.5,15.6,16.5h239.5c9,0,15.6-4.6,15.6-16.5V456.2C647.4,447.8,647.4,441.2,638.3,434z M592.3,593c0,9.2-4.6,11.2-11,11.2H442.8c-6.4,0-11-2.1-11-11.2V479.1c0-6.4,2.9-12.6,7.8-16.6c2.8-2.3,63-49.4,65.1-51.1c4.2-3.5,10.4-3.5,14.6,0c2.2,1.7,62.3,48.8,65.1,51.1c5,4.1,7.9,10.2,7.8,16.6L592.3,593z"/>
            <path fill="#FFE780" d="M512,604.1h69.2c6.4,0,11-2.1,11-11.2V479.1c0-6.4-2.9-12.6-7.8-16.6c-2.8-2.3-63-49.4-65.1-51.1c-4.2-3.5-10.4-3.5-14.6,0c-2.1,1.7-62.3,48.8-65.1,51.1c-5,4.1-7.9,10.2-7.8,16.6v113.8c0,9.2,4.6,11.2,11,11.2L512,604.1z"/>
        </g>
        <defs>
            <mask id="ha-mask">
                <path d="M320 301.762C320 310.012 313.25 316.762 305 316.762H95C86.75 316.762 80 310.012 80 301.762V211.762C80 203.512 84.77 191.993 90.61 186.153L189.39 87.3725C195.22 81.5425 204.77 81.5425 210.6 87.3725L309.39 186.162C315.22 191.992 320 203.522 320 211.772V301.772V301.762Z" fill="white"/>
                <path d="M309.39 186.153L210.61 87.3725C204.78 81.5425 195.23 81.5425 189.4 87.3725L90.61 186.153C84.78 191.983 80 203.512 80 211.762V301.762C80 310.012 86.75 316.762 95 316.762H187.27L146.64 276.132C144.55 276.852 142.32 277.262 140 277.262C128.7 277.262 119.5 268.062 119.5 256.762C119.5 245.462 128.7 236.262 140 236.262C151.3 236.262 160.5 245.462 160.5 256.762C160.5 259.092 160.09 261.322 159.37 263.412L191 295.042V179.162C184.2 175.822 179.5 168.842 179.5 160.772C179.5 149.472 188.7 140.272 200 140.272C211.3 140.272 220.5 149.472 220.5 160.772C220.5 168.842 215.8 175.822 209 179.162V260.432L240.46 228.972C239.84 227.012 239.5 224.932 239.5 222.772C239.5 211.472 248.7 202.272 260 202.272C271.3 202.272 280.5 211.472 280.5 222.772C280.5 234.072 271.3 243.272 260 243.272C257.5 243.272 255.12 242.802 252.91 241.982L209 285.892V316.772H305C313.25 316.772 320 310.022 320 301.772V211.772C320 203.522 315.23 192.002 309.39 186.162V186.153Z" fill="black"/>
            </mask>
        </defs>
        <g transform="translate(112,192) scale(2)">
            <g mask="url(#ha-mask)">
                <path d="M320 301.762C320 310.012 313.25 316.762 305 316.762H95C86.75 316.762 80 310.012 80 301.762V211.762C80 203.512 84.77 191.993 90.61 186.153L189.39 87.3725C195.22 81.5425 204.77 81.5425 210.6 87.3725L309.39 186.162C315.22 191.992 320 203.522 320 211.772V301.772V301.762Z" fill="#18BCF2"/>
            </g>
        </g>
    </g>
</svg>
